v -28.63200000 -91.03510000 816.86200000
v -24.26400000 -71.84270000 796.79200000
v -28.06880000 -82.33290000 800.63900000
v 25.20480000 -76.29230000 798.01400000
v 31.32800000 -70.47710000 817.15200000
v -30.71680000 -88.26630000 810.81400000
v -1.68427000 -60.84340000 802.80300000
v -3.61451000 -57.72990000 823.55600000
v -11.59510000 -57.17840000 818.76800000
v -26.45270000 -67.41580000 800.95700000
v -5.12662000 -115.90200000 819.01000000
v 28.67690000 -68.30990000 820.93600000
v 10.97770000 -57.69050000 812.25900000
v 9.01034000 -68.63590000 828.23700000
v 30.16810000 -66.35830000 814.18600000
v -0.35969000 -81.50040000 789.73200000
v -0.54644200 -127.25700000 819.64500000
v 26.06580000 -65.99020000 822.44400000
v -32.76780000 -75.67040000 805.87200000
v 27.46900000 -66.46050000 804.23400000
v 28.47380000 -79.71980000 801.73100000
v 24.97620000 -62.52420000 820.04700000
v 8.36841000 -59.22290000 824.41400000
v 26.20990000 -62.46470000 816.67400000
v 24.64830000 -73.76200000 824.43200000
v -12.33090000 -67.32340000 829.57200000
v 19.39390000 -73.66220000 795.06000000
v 30.20350000 -85.74620000 814.95200000
v 28.45310000 -75.94020000 821.76400000
v -1.33997000 -127.13900000 819.12300000
v 32.46920000 -74.43350000 815.42000000
v 30.84200000 -79.46860000 818.10100000
v 23.30280000 -66.81880000 824.66300000
v 14.04200000 -88.36530000 792.86700000
v 20.47240000 -72.83220000 825.89200000
v -4.77976000 -70.50460000 829.98900000
v 17.32040000 -64.08290000 825.81400000
v -0.64222900 -128.24000000 817.29100000
v 27.75410000 -90.92840000 810.08200000
v 20.89330000 -61.60730000 807.19900000
v 23.03250000 -69.68610000 825.29200000
v 3.12594000 -114.70200000 819.58900000
v -1.94841000 -126.71700000 816.23400000
v -3.04804000 -121.76400000 818.45300000
v 28.63740000 -66.15850000 819.24200000
v -34.14660000 -76.71120000 811.44600000
v -21.69540000 -59.48280000 814.02500000
v 29.33500000 -84.70650000 805.81000000
v -23.65540000 -60.52660000 819.00200000
v -33.08260000 -69.77340000 811.90000000
v 0.17785700 -124.59600000 819.16000000
v -5.20975000 -122.11300000 815.33200000
v 5.80454000 -118.84700000 809.64000000
v 28.46630000 -72.08670000 801.25900000
v 32.61350000 -72.58370000 812.04700000
v 30.21510000 -72.96730000 820.11400000
v 0.46973300 -101.22800000 793.65100000
v 0.10155900 -126.84200000 815.21700000
v -23.10000000 -61.28170000 808.82800000
v -20.16720000 -67.08090000 798.02900000
v 26.20240000 -92.14380000 816.58500000
v 28.82320000 -64.99370000 810.23300000
v 21.96560000 -92.61670000 820.38400000
v -1.01947000 -125.43500000 813.71800000
v 3.51237000 -56.52530000 817.88500000
v 4.60165000 -120.79400000 815.45500000
v -14.65510000 -90.82070000 793.24200000
v -26.91750000 -91.38010000 804.45400000
v -26.57670000 -61.54370000 814.35400000
v -19.11270000 -73.28960000 794.39300000
v 30.91770000 -70.90620000 805.74600000
v 31.13210000 -77.30110000 805.10600000
v -23.49670000 -100.16800000 809.61300000
v 31.11450000 -68.38920000 809.67800000
v 19.91770000 -59.66790000 818.71400000
v 0.37615000 -127.22900000 817.00500000
v -33.11580000 -75.07020000 817.56200000
v -29.23260000 -66.55060000 820.88500000
v 27.67300000 -84.65340000 819.89400000
v -23.46140000 -75.68040000 795.87000000
v -28.21340000 -78.65140000 823.97900000
v -1.33436000 -69.52100000 793.74100000
v -21.93820000 -63.82540000 825.52100000
v -2.37831000 -116.10500000 819.91600000
v -32.45330000 -82.47140000 808.65700000
v 10.71150000 -113.69200000 810.67000000
v 25.52270000 -69.10040000 799.84900000
v 20.29230000 -61.66550000 822.88500000
v 18.33230000 -67.26310000 826.47800000
v 8.30979000 -114.01000000 816.54900000
v 5.42243000 -95.53860000 825.12400000
v -29.31880000 -72.83210000 800.70000000
v -11.52360000 -113.43800000 814.12400000
v -23.62920000 -91.34400000 822.64800000
v 23.34840000 -82.76900000 823.16900000
v -13.40680000 -108.79300000 803.05200000
v -0.86158900 -122.71900000 819.29300000
v 26.47330000 -69.82970000 823.43700000
v -23.93630000 -70.95280000 827.28800000
v 3.59426000 -64.33300000 828.64700000
v 17.80610000 -96.93940000 798.44800000
v 0.76313300 -120.85800000 818.96900000
v -30.69620000 -84.35730000 819.10300000
v 19.47500000 -65.98380000 799.36700000
v -31.39060000 -68.59880000 806.26200000
v 32.62380000 -78.59340000 812.65500000
v -13.32010000 -59.33270000 824.17100000
v 32.47990000 -75.99440000 808.36900000
v -28.72010000 -64.04400000 808.72700000
v -14.78570000 -83.51350000 828.83700000
v -30.41930000 -64.86650000 812.94200000
v 31.64470000 -81.45760000 809.08600000
v -33.14090000 -81.48710000 814.36700000
v -2.24021000 -60.31760000 827.11400000
v -3.89493000 -56.65170000 813.04400000
vn -0.81732000 -0.48956900 0.30382800
vn -0.46715300 0.31590900 -0.82581500
vn -0.73591900 -0.21686900 -0.64139800
vn 0.59060100 -0.02814330 -0.80647200
vn 0.91361500 0.26810800 0.30565500
vn -0.89984900 -0.42564000 -0.09540720
vn 0.00001465 0.85209500 -0.52338700
vn -0.02086220 0.91276300 0.40795600
vn -0.15003500 0.97954100 0.13412100
vn -0.52087000 0.60852600 -0.59865800
vn -0.49505100 -0.36727800 0.78742100
vn 0.76694100 0.27303900 0.58073300
vn 0.14649700 0.96634600 -0.21145800
vn 0.15476200 -0.02498680 0.98763600
vn 0.85329900 0.51425900 0.08613240
vn 0.00606551 0.05299330 -0.99857600
vn 0.49003400 0.02536140 0.87133400
vn 0.59540700 0.44577300 0.66841400
vn -0.92288900 0.01168850 -0.38489000
vn 0.62795800 0.62168700 -0.46816100
vn 0.75485200 -0.18456000 -0.62939300
vn 0.55505600 0.72717400 0.40389400
vn 0.16357200 0.79013200 0.59070800
vn 0.58888100 0.80575500 0.06307610
vn 0.42847900 -0.09765760 0.89825900
vn -0.12438100 0.27380800 0.95370800
vn 0.30502700 0.25631200 -0.91720400
vn 0.90310000 -0.36733400 0.22243200
vn 0.63035600 -0.13011700 0.76532400
vn -0.80189800 -0.59175100 0.08240130
vn 0.96151800 0.01891890 0.27409000
vn 0.86268100 -0.18457400 0.47086500
vn 0.41931500 0.31705600 0.85067700
vn 0.35941900 -0.16425400 -0.91860700
vn 0.23856500 -0.10274400 0.96567600
vn 0.06117100 -0.01715680 0.99798000
vn 0.25573900 0.44717000 0.85710900
vn -0.30903100 -0.76361500 -0.56691500
vn 0.85292700 -0.50065900 -0.14783900
vn 0.31933300 0.89185700 -0.32034000
vn 0.36896000 0.04774460 0.92821800
vn 0.31652500 -0.29751800 0.90071900
vn -0.45241100 -0.71584800 -0.53187000
vn -0.56385100 -0.19725500 0.80197400
vn 0.77267600 0.51652700 0.36901400
vn -0.99813600 -0.03854550 -0.04732030
vn -0.27879200 0.95544000 -0.09699670
vn 0.83628400 -0.34801400 -0.42369200
vn -0.42531500 0.85783400 0.28849400
vn -0.95436300 0.29862000 0.00419345
vn 0.46558000 0.00138024 0.88500500
vn -0.80990400 -0.58503200 -0.04235720
vn 0.56983300 -0.67757100 -0.46496100
vn 0.75778600 0.17377900 -0.62893700
vn 0.98126200 0.19211600 -0.01472250
vn 0.81640200 0.04006090 0.57609200
vn 0.05654700 -0.46427400 -0.88388500
vn 0.67072200 -0.69705800 -0.25345900
vn -0.28156500 0.88321600 -0.37503400
vn -0.22141600 0.66020700 -0.71770600
vn 0.76528700 -0.51734500 0.38300200
vn 0.65844300 0.73132400 -0.17781700
vn 0.48346400 -0.38336800 0.78695100
vn -0.16107700 -0.71497300 -0.68034400
vn 0.07410020 0.98993400 0.12058400
vn 0.80378200 -0.42918600 0.41198900
vn -0.40928800 -0.24671400 -0.87841600
vn -0.76469200 -0.42282700 -0.48627500
vn -0.54872100 0.83599800 0.00340779
vn -0.24684600 0.23417700 -0.94033400
vn 0.89389700 0.25072300 -0.37159900
vn 0.88653600 -0.09681300 -0.45241600
vn -0.80169900 -0.58576100 -0.11901100
vn 0.87220400 0.45244700 -0.18587900
vn 0.30674700 0.94023700 0.14785600
vn 0.77111000 -0.63669800 0.00217967
vn -0.92743800 0.02724170 0.37298300
vn -0.76421200 0.44266300 0.46907300
vn 0.67403400 -0.31305900 0.66908300
vn -0.51689100 -0.01814010 -0.85585900
vn -0.64937600 -0.10875400 0.75265000
vn 0.00695499 0.52009700 -0.85407900
vn -0.40298000 0.55901700 0.72464300
vn -0.11309500 -0.23621600 0.96509700
vn -0.91924300 -0.27518200 -0.28154500
vn 0.78836100 -0.61454500 -0.02866390
vn 0.51691500 0.40484100 -0.75425600
vn 0.36924400 0.68052500 0.63288600
vn 0.23856100 0.13384900 0.96185900
vn 0.65296400 -0.47788200 0.58759400
vn 0.17650400 -0.22086300 0.95920100
vn -0.73309500 0.14302900 -0.66491700
vn -0.74560100 -0.57073400 0.34400800
vn -0.53798600 -0.41200800 0.73540500
vn 0.39431200 -0.23168000 0.88929300
vn -0.61694600 -0.61947700 -0.48541300
vn -0.38274500 -0.06595780 0.92149600
vn 0.59083600 0.10781300 0.79955600
vn -0.45538900 0.12027700 0.88213100
vn 0.11751600 0.29671200 0.94770900
vn 0.63317600 -0.44671300 -0.63208800
vn 0.40187600 -0.16359300 0.90096200
vn -0.81758600 -0.28295200 0.50148900
vn 0.24132400 0.68779600 -0.68461600
vn -0.82792200 0.42862300 -0.36170200
vn 0.98637300 -0.14746500 0.07295610
vn -0.19788000 0.78571500 0.58608400
vn 0.97462200 -0.01913030 -0.22303700
vn -0.59050500 0.74971800 -0.29870900
vn -0.18179000 -0.18000400 0.96672200
vn -0.79187400 0.61068300 0.00137248
vn 0.93906300 -0.28695700 -0.18925200
vn -0.95381600 -0.26817400 0.13534500
vn -0.01191100 0.62594000 0.77978000
vn -0.06654480 0.97442700 -0.21462400
f 28//28 112//112 106//106
f 32//32 106//106 31//31
f 32//32 28//28 106//106
f 112//112 108//108 106//106
f 106//106 55//55 31//31
f 108//108 112//112 72//72
f 48//48 72//72 112//112
f 72//72 48//48 21//21
f 21//21 54//54 72//72
f 71//71 72//72 54//54
f 5//5 56//56 31//31
f 31//31 55//55 5//5
f 32//32 31//31 56//56
f 106//106 108//108 55//55
f 108//108 71//71 55//55
f 72//72 71//71 108//108
f 71//71 54//54 20//20
f 45//45 12//12 5//5
f 55//55 74//74 15//15
f 15//15 5//5 55//55
f 74//74 62//62 15//15
f 55//55 71//71 74//74
f 20//20 74//74 71//71
f 20//20 62//62 74//74
f 39//39 112//112 28//28
f 39//39 48//48 112//112
f 39//39 101//101 48//48
f 28//28 79//79 61//61
f 61//61 79//79 63//63
f 63//63 79//79 95//95
f 61//61 39//39 28//28
f 48//48 101//101 21//21
f 79//79 28//28 32//32
f 54//54 21//21 4//4
f 79//79 32//32 29//29
f 29//29 32//32 56//56
f 95//95 79//79 29//29
f 20//20 54//54 87//87
f 54//54 4//4 87//87
f 56//56 12//12 98//98
f 98//98 29//29 56//56
f 25//25 29//29 98//98
f 98//98 41//41 25//25
f 41//41 98//98 33//33
f 56//56 5//5 12//12
f 104//104 20//20 87//87
f 98//98 18//18 33//33
f 33//33 18//18 88//88
f 45//45 5//5 15//15
f 12//12 45//45 18//18
f 98//98 12//12 18//18
f 45//45 15//15 24//24
f 22//22 18//18 45//45
f 22//22 45//45 24//24
f 88//88 18//18 22//22
f 15//15 62//62 24//24
f 24//24 62//62 40//40
f 62//62 20//20 40//40
f 61//61 86//86 39//39
f 86//86 101//101 39//39
f 63//63 90//90 61//61
f 90//90 63//63 42//42
f 101//101 4//4 21//21
f 101//101 34//34 4//4
f 63//63 95//95 91//91
f 35//35 95//95 25//25
f 35//35 91//91 95//95
f 4//4 34//34 27//27
f 25//25 95//95 29//29
f 4//4 27//27 87//87
f 27//27 104//104 87//87
f 82//82 104//104 27//27
f 25//25 41//41 35//35
f 41//41 89//89 35//35
f 41//41 33//33 89//89
f 88//88 37//37 33//33
f 104//104 40//40 20//20
f 40//40 104//104 7//7
f 22//22 24//24 75//75
f 88//88 22//22 75//75
f 24//24 40//40 75//75
f 13//13 75//75 40//40
f 53//53 57//57 101//101
f 86//86 61//61 90//90
f 42//42 63//63 91//91
f 16//16 27//27 34//34
f 33//33 37//37 89//89
f 89//89 14//14 35//35
f 100//100 14//14 89//89
f 89//89 37//37 100//100
f 23//23 37//37 88//88
f 23//23 88//88 75//75
f 40//40 7//7 13//13
f 53//53 101//101 86//86
f 34//34 101//101 57//57
f 16//16 82//82 27//27
f 14//14 91//91 35//35
f 37//37 23//23 100//100
f 75//75 13//13 65//65
f 65//65 13//13 115//115
f 13//13 7//7 115//115
f 58//58 64//64 53//53
f 86//86 66//66 53//53
f 90//90 66//66 86//86
f 57//57 53//53 64//64
f 64//64 96//96 57//57
f 23//23 114//114 100//100
f 75//75 65//65 23//23
f 76//76 53//53 66//66
f 58//58 53//53 76//76
f 66//66 17//17 76//76
f 38//38 76//76 17//17
f 38//38 58//58 76//76
f 38//38 64//64 58//58
f 51//51 66//66 102//102
f 66//66 51//51 17//17
f 17//17 51//51 97//97
f 102//102 97//97 51//51
f 42//42 102//102 90//90
f 66//66 90//90 102//102
f 84//84 102//102 42//42
f 84//84 42//42 91//91
f 34//34 57//57 16//16
f 36//36 91//91 14//14
f 7//7 82//82 60//60
f 100//100 36//36 14//14
f 7//7 104//104 82//82
f 26//26 100//100 114//114
f 8//8 65//65 9//9
f 114//114 23//23 8//8
f 8//8 23//23 65//65
f 65//65 115//115 9//9
f 38//38 17//17 30//30
f 30//30 43//43 38//38
f 43//43 64//64 38//38
f 30//30 17//17 44//44
f 44//44 17//17 97//97
f 102//102 84//84 97//97
f 44//44 97//97 84//84
f 52//52 30//30 44//44
f 43//43 30//30 52//52
f 64//64 43//43 96//96
f 44//44 84//84 11//11
f 67//67 57//57 96//96
f 16//16 57//57 67//67
f 26//26 36//36 100//100
f 107//107 26//26 114//114
f 107//107 114//114 8//8
f 107//107 8//8 9//9
f 96//96 43//43 52//52
f 11//11 93//93 44//44
f 52//52 44//44 93//93
f 96//96 52//52 93//93
f 84//84 94//94 11//11
f 94//94 93//93 11//11
f 84//84 91//91 110//110
f 70//70 82//82 16//16
f 36//36 110//110 91//91
f 93//93 73//73 96//96
f 73//73 68//68 96//96
f 68//68 67//67 96//96
f 67//67 68//68 3//3
f 3//3 80//80 67//67
f 94//94 84//84 110//110
f 16//16 67//67 70//70
f 80//80 70//70 67//67
f 70//70 60//60 82//82
f 70//70 2//2 60//60
f 26//26 110//110 36//36
f 9//9 115//115 47//47
f 93//93 94//94 1//1
f 93//93 1//1 73//73
f 94//94 110//110 81//81
f 10//10 60//60 2//2
f 10//10 2//2 92//92
f 70//70 80//80 2//2
f 110//110 99//99 81//81
f 59//59 7//7 60//60
f 60//60 10//10 59//59
f 99//99 110//110 26//26
f 83//83 99//99 26//26
f 99//99 83//83 78//78
f 83//83 26//26 107//107
f 83//83 107//107 49//49
f 78//78 83//83 49//49
f 49//49 107//107 9//9
f 49//49 9//9 47//47
f 47//47 59//59 69//69
f 109//109 69//69 59//59
f 47//47 69//69 49//49
f 69//69 78//78 49//49
f 59//59 115//115 7//7
f 59//59 47//47 115//115
f 1//1 94//94 103//103
f 73//73 1//1 6//6
f 73//73 6//6 68//68
f 68//68 6//6 85//85
f 81//81 103//103 94//94
f 68//68 85//85 3//3
f 80//80 3//3 92//92
f 3//3 19//19 92//92
f 19//19 105//105 92//92
f 80//80 92//92 2//2
f 81//81 99//99 78//78
f 10//10 109//109 59//59
f 10//10 105//105 109//109
f 105//105 10//10 92//92
f 109//109 111//111 69//69
f 105//105 111//111 109//109
f 78//78 69//69 111//111
f 6//6 1//1 113//113
f 103//103 113//113 1//1
f 6//6 113//113 85//85
f 113//113 46//46 85//85
f 77//77 46//46 113//113
f 113//113 103//103 77//77
f 46//46 19//19 85//85
f 3//3 85//85 19//19
f 78//78 77//77 81//81
f 103//103 81//81 77//77
f 78//78 111//111 50//50
f 105//105 50//50 111//111
f 50//50 19//19 46//46
f 19//19 50//50 105//105
f 50//50 77//77 78//78
f 46//46 77//77 50//50